<svg xmlns="http://www.w3.org/2000/svg" viewBox="0 0 240.65 67.95"><defs><style>.cls-1,.cls-3,.cls-4{fill:#004272;}.cls-1{stroke:#fff;stroke-width:1.84px;}.cls-2{fill:#fff;}.cls-4{fill-rule:evenodd;}</style></defs><title>Asset 1</title><g id="Layer_2" data-name="Layer 2"><g id="Layer_1-2" data-name="Layer 1"><path d="M98.17 30.16H86.76c-.39 0-.67-.13-.63-.35a.9.9 0 0 1 .81-.53L88.8 29a2.48 2.48 0 0 0 1.87-2l2.22-10.2L95 6.68c.24-1.11-.26-1.86-1-2l-1.74-.27c-.39 0-.64-.27-.6-.49s.39-.4.79-.4h11.41c.39 0 .67.13.63.35a.9.9 0 0 1-.81.53l-1.86.27a2.48 2.48 0 0 0-1.87 2L97.72 16.8 95.59 27c-.24 1.11.26 1.86 1 2l1.74.27c.39 0 .65.27.6.49s-.37.4-.76.4zM121.37 30.16H114c-.39 0-.54-.13-.49-.35s.38-.36.7-.62a3.92 3.92 0 0 0 1-2.26l2-9.5c.55-2.57-.18-3.91-2.15-3.91-1.67 0-4.37 1.38-4.82 3.46l-2.13 10c-.24 1.11.19 1.78.93 2l.86.27c.33.09.65.27.6.49s-.39.4-.79.4h-9c-.4 0-.67-.13-.63-.35s.39-.4.81-.53l1-.27a2.53 2.53 0 0 0 1.83-2l2.63-12.38c.24-1.11-.23-1.82-1-2l-1.74-.27c-.34 0-.65-.22-.6-.49s.39-.4.79-.4h6.45a.55.55 0 0 1 .6.49l.28 1c0 .18.22.22.43 0a7.65 7.65 0 0 1 5.28-2c3.64 0 5.7 2.49 4.73 7.06l-1.9 9a1.54 1.54 0 0 0 1 2l.91.27c.32.13.6.27.55.49s-.36.4-.76.4zM143.3 12.45a3 3 0 0 0-1.39 1.15l-10.54 16.56a1.92 1.92 0 0 1-1.41.44c-.53 0-1.1-.18-1.14-.4l-3.65-16.64a1.19 1.19 0 0 0-1-.93l-1-.22c-.33-.09-.65-.22-.59-.53s.38-.35.78-.35h8.9c.39 0 .68.09.63.35s-.39.4-.82.53l-1.21.31a1 1 0 0 0-.75.84 1.54 1.54 0 0 0 0 .67l1.6 10.21c0 .22.39.22.53 0l6-10.21a2 2 0 0 0 .27-.67c.09-.4 0-.71-.39-.84l-1.12-.31c-.37-.09-.65-.22-.59-.53s.38-.35.78-.35h6.19c.39 0 .67.13.63.35s-.37.4-.71.57zM156.8 20.75h-9.61a1.2 1.2 0 0 0-1.11.89c-1 4.75.79 6.79 3.25 6.79a8 8 0 0 0 5.27-2.71c.17-.18.3-.18.41-.09l.73.71a.27.27 0 0 1 0 .35 10.12 10.12 0 0 1-7.74 3.92c-4 0-7.88-2.75-6.37-9.85 1.24-5.81 5.87-9.68 10.65-9.68 3.82 0 7.08 2.4 5.82 8.34-.1.58-.73 1.33-1.3 1.33zm-4.87-8c-2.15 0-4 2.22-5.06 5.64-.15.49 0 .75.5.75h3.19a5.92 5.92 0 0 0 1.93-.22 1.64 1.64 0 0 0 1.39-1.38c.58-2.69-.02-4.82-1.95-4.82zM165.1 30.61a28.6 28.6 0 0 1-6.48-.89.54.54 0 0 1-.45-.58c.1-.67.27-1.69.35-2.49s.24-1.73.28-2.35a.53.53 0 0 1 .51-.53.47.47 0 0 1 .47.49c.49 3.68 2.2 4.53 5.79 4.53 1.62 0 3.91-.84 4.31-2.75 1-4.66-10.46-2.62-8.94-9.72.71-3.33 3.26-5.24 7.74-5.24 2.33 0 6.42.53 6.42.53a.35.35 0 0 1 .34.44l-.9 4.66c0 .18-.2.53-.46.53s-.31-.18-.35-.4c-.39-3.33-1.95-4-5.24-4-1.93 0-3.58.75-4 2.53-.81 3.82 10.72 2.17 9.14 9.63-.95 4.63-4.8 5.61-8.53 5.61zM187.48 29.32a9.16 9.16 0 0 1-4.62 1.11c-3.55 0-5.6-1.11-5-4l2.68-12.61h-3.44a.34.34 0 0 1-.35-.4L177 12a.54.54 0 0 1 .53-.44h2.81c.44 0 .92-.22 1.49-1l3.62-5.06a1 1 0 0 1 .75-.44.44.44 0 0 1 .45.58l-1.26 5.95h5c.31 0 .42.09.36.35l-.35 1.64a.43.43 0 0 1-.47.36l-5-.09-2.48 11.67c-.43 2-.37 3.37 2 3.37a6.6 6.6 0 0 0 2.66-.75c.2-.09.38-.13.43 0l.13.84c.03.16.01.25-.19.34zM196.25 30.61c-5.7 0-7.82-4.71-6.73-9.81s5.22-9.72 10.88-9.72 7.84 4.62 6.75 9.72-5.2 9.81-10.9 9.81zm3.64-17.53c-3.55 0-5 3.82-5.69 7.15s-1.23 8.66 2.55 8.66c3.55 0 5-4.26 5.71-7.46.72-3.43 1.24-8.36-2.57-8.36zM224.09 16c-.13.4-.28.71-.68.71s-.32-1-.37-1.38c-.05-1-.74-1.69-2.1-1.69a5.65 5.65 0 0 0-4.06 2.18 5 5 0 0 0-.93 1.91L214 27a1.54 1.54 0 0 0 1 2l.86.27c.37.13.65.27.6.49s-.39.4-.79.4h-9.07c-.39 0-.67-.13-.62-.35s.39-.4.81-.53l1-.27a2.53 2.53 0 0 0 1.83-2l2.63-12.38c.24-1.11-.27-1.82-1-2l-1.3-.27c-.37-.09-.64-.27-.6-.49s.39-.4.79-.4h5.62a.53.53 0 0 1 .59.53l.18 1.82c0 .22.29.31.51.09a8.26 8.26 0 0 1 6.45-2.89 5 5 0 0 1 1.43.27c.24.09.68.31.56.67zM230.29 30.61a28.62 28.62 0 0 1-6.48-.89.54.54 0 0 1-.45-.58c.1-.67.27-1.69.35-2.49s.24-1.73.28-2.35a.53.53 0 0 1 .51-.53.47.47 0 0 1 .47.49c.49 3.68 2.2 4.53 5.79 4.53 1.63 0 3.91-.84 4.31-2.75 1-4.66-10.45-2.62-8.94-9.72.71-3.33 3.26-5.24 7.74-5.24 2.33 0 6.42.53 6.42.53a.35.35 0 0 1 .34.44l-.9 4.66c0 .18-.2.53-.46.53s-.31-.18-.35-.4c-.39-3.33-1.95-4-5.24-4-1.93 0-3.58.75-4 2.53-.81 3.82 10.72 2.17 9.14 9.63-.96 4.63-4.82 5.61-8.53 5.61z"/><path class="cls-1" d="M72.72 62a6.45 6.45 0 0 1-6 5.07H5.1A4.05 4.05 0 0 1 1 62L11.9 6a6.45 6.45 0 0 1 6-5.06h61.62A4.05 4.05 0 0 1 83.6 6z"/><path class="cls-2" d="M71.52 18.39a5.19 5.19 0 0 0-4-1.72H52.68l1.63-7.86H20l-2 9.56h7.06a2.89 2.89 0 0 1 2.19.64 1.74 1.74 0 0 1 .4 1.15 5.28 5.28 0 0 1-.12 1.3L22.6 45.6c-.72 2.65-2.08 3.78-4.52 3.78h-6.43l-2 9.75H44l1.65-8.05h3.27a21.33 21.33 0 0 0 5.49-.57c-.06.3-.14.6-.14.6h12.16l4.13-19.77H52.91l-1.49 8h5.27c-.1.49-.2 1-.28 1.43a3 3 0 0 1-3 2.74h-6.17a2.34 2.34 0 0 1 .06-.51s3.61-17.31 3.7-17.71a4 4 0 0 1 .42-1.29H59.8v.16c0 .33-.27 1.48-.41 2.18l-.46 2.12h12.21l.27-1.28c0-.14.73-3.43 1-5.11a4.25 4.25 0 0 0-.89-3.68z"/><path class="cls-3" d="M38.32 51.08c-2.27 0-5.16-.92-4.27-5.21l5-24.19c1-3.73 3.09-5 6.14-5h5.72l1.28-6.15H21.44l-1.26 6.16H25A4.55 4.55 0 0 1 28.6 18a4.35 4.35 0 0 1 .68 3.91l-5 24.19c-.82 3-2.62 5-6.14 5h-5.03l-1.31 6.33h30.7l1.31-6.35z"/><path class="cls-4" d="M38.21 49.38c-1.53 0-3-.26-2.46-3.1l5-24.2a4.23 4.23 0 0 1 4.51-3.69h22.35c2.08 0 3.51 1.42 3.11 3.32-.31 1.68-1 5.07-1 5.07h-8.65s.38-1.77.44-2.34c.43-1.68-.55-2.24-1.93-2.12h-7.35c-1.5 0-2.35-.15-3 2.55l-3.65 17.75c-.25 1.18-.12 2.46 1.74 2.57h6.31a4.62 4.62 0 0 0 4.5-4c.22-1.34.73-3.54.73-3.54h-5.32l.85-4.65h14L65 49.38h-8.64s.4-1.91.56-2.69c-.88 1.79-3.34 2.69-8.13 2.69z"/><path d="M106.64 47.29l-1.43.31a2.53 2.53 0 0 0-1.87 2l-1.73 8.12a1.58 1.58 0 0 0 .1 1.2.38.38 0 0 1 .13.4.45.45 0 0 1-.48.4 1.86 1.86 0 0 1-.54-.13l-2.73-1.2a.88.88 0 0 0-1 .09 10.85 10.85 0 0 1-5.21 1.38c-6.76 0-11.08-4.44-9.08-13.8 1.78-8.39 7.79-13.72 14.37-13.72 2.63 0 5.35.44 7.76.62.26 0 .45.35.4.58l-1.49 7a.74.74 0 0 1-.57.62c-.22 0-.4-.18-.42-.49-.12-4.39-1.8-6.39-6-6.39-5.75 0-7.94 8.26-8.83 12.43-1 4.48-1.09 11.1 4.48 11.1a6.33 6.33 0 0 0 5.63-4.62l.87-4.08a1.86 1.86 0 0 0-.14-1.6c-.24-.31-.48-.44-.42-.71s.26-.4.66-.4h7.76c.35 0 .52.22.48.44s-.29.36-.7.45z"/><path d="M122.82 45.24c-.13.4-.28.71-.68.71s-.32-1-.37-1.38c-.05-1-.74-1.69-2.1-1.69a5.64 5.64 0 0 0-4.06 2.17 4.93 4.93 0 0 0-.93 1.91l-2 9.28a1.54 1.54 0 0 0 1 2l.86.27c.37.13.65.27.6.49s-.39.4-.79.4h-9.08c-.39 0-.67-.13-.63-.35s.39-.4.81-.53l1-.27a2.53 2.53 0 0 0 1.83-2L111 43.87c.24-1.11-.27-1.82-1-2l-1.3-.27c-.38-.09-.65-.27-.6-.49s.39-.4.79-.4h5.62a.53.53 0 0 1 .59.53l.18 1.82c0 .22.28.31.51.09a8.26 8.26 0 0 1 6.45-2.89 5 5 0 0 1 1.44.27c.24.09.68.31.56.67zM129.58 59.85c-5.7 0-7.82-4.71-6.73-9.81s5.23-9.72 10.89-9.72 7.83 4.62 6.75 9.72-5.2 9.81-10.91 9.81zm3.64-17.53c-3.55 0-5 3.82-5.69 7.15s-1.23 8.66 2.55 8.66c3.55 0 5-4.26 5.71-7.46.73-3.43 1.21-8.36-2.57-8.36zM160.34 59.4h-6a.55.55 0 0 1-.6-.49l-.28-1c-.05-.18-.22-.22-.43 0a7.65 7.65 0 0 1-5.28 2c-3.64 0-5.7-2.49-4.73-7.06l1.89-8.88a1.54 1.54 0 0 0-1-2l-.91-.27c-.32-.13-.6-.27-.55-.49s.39-.4.79-.4h7.37c.39 0 .54.13.49.35s-.38.35-.7.62a3.92 3.92 0 0 0-1 2.26l-2 9.5c-.55 2.57.18 3.91 2.15 3.91 1.67 0 4.37-1.38 4.82-3.46l2.13-10c.24-1.11-.19-1.78-.94-2l-.86-.27c-.33-.09-.65-.27-.6-.49s.39-.4.79-.4h6.23c.35 0 .58.18.5.53l-.8 2.93-2.62 12.01c-.24 1.11.24 1.78 1 2l1.3.27c.33.09.65.22.6.49s-.36.34-.76.34zM172.19 59.85a9.17 9.17 0 0 1-3.62-.53c-.24-.09-.41.09-.46.31l-.84 3.52c-.23 1.11.24 1.78 1 2l1.3.27c.33.09.65.22.6.49s-.39.4-.79.4h-7.68c-.4 0-.54-.13-.5-.35s.38-.36.7-.62a3.85 3.85 0 0 0 1-2.22l4.16-19.15c.24-1.11-.22-1.86-1-2l-1.3-.27c-.38-.09-.65-.27-.6-.49s.39-.4.79-.4h5.7a.57.57 0 0 1 .59.53l.2.93c.06.13.13.22.26.22a.84.84 0 0 0 .4-.22 7.78 7.78 0 0 1 4.9-1.95c4 0 6.92 2.75 5.4 9.9-1.33 6.03-5.96 9.63-10.21 9.63zm3.47-17.13a5.47 5.47 0 0 0-4.15 2.4 4.5 4.5 0 0 0-.56 1.2l-1.57 7.37c-.65 3.06.19 4.48 2.78 4.48 2 0 4.43-2.26 5.64-7.95 1.2-5.51-.13-7.5-2.15-7.5z"/></g></g></svg>